<svg xmlns:xlink="http://www.w3.org/1999/xlink" width="6.395ex" height="2.843ex" style="font-size: 15px; vertical-align: -1.005ex; margin-left: -0.052ex;" viewBox="-22.5 -791.3 2753.3 1223.9" role="img" focusable="false" xmlns="http://www.w3.org/2000/svg">
<defs>
<path stroke-width="1" id="E1-MJMATHBI-70" d="M24 296Q25 302 27 312T41 350T65 397T103 435T157 452Q235 452 273 404Q336 452 409 452Q434 452 458 448T507 432T550 402T581 354T593 285Q593 221 564 159T480 53Q401 -8 302 -8Q290 -8 279 -7T259 -3T242 3T228 9T218 14T212 18L209 20Q208 19 190 -55T171 -131T198 -132H213Q240 -132 240 -150Q237 -187 223 -192Q219 -194 212 -194Q208 -194 176 -193T95 -192Q48 -192 24 -193T-3 -194Q-11 -194 -16 -190T-22 -182T-23 -176Q-20 -142 -7 -134Q-3 -132 20 -132H44L164 354Q165 357 165 372Q165 401 148 401Q113 401 90 310Q85 289 82 286T60 282H55H44Q24 282 24 296ZM465 339Q465 373 447 387T403 401Q375 401 347 387T303 360T288 341Q288 338 257 216L227 93Q248 43 306 43Q332 43 361 59T410 115Q425 147 445 224Q465 309 465 339Z"></path>
<path stroke-width="1" id="E1-MJMATHI-6A" d="M297 596Q297 627 318 644T361 661Q378 661 389 651T403 623Q403 595 384 576T340 557Q322 557 310 567T297 596ZM288 376Q288 405 262 405Q240 405 220 393T185 362T161 325T144 293L137 279Q135 278 121 278H107Q101 284 101 286T105 299Q126 348 164 391T252 441Q253 441 260 441T272 442Q296 441 316 432Q341 418 354 401T367 348V332L318 133Q267 -67 264 -75Q246 -125 194 -164T75 -204Q25 -204 7 -183T-12 -137Q-12 -110 7 -91T53 -71Q70 -71 82 -81T95 -112Q95 -148 63 -167Q69 -168 77 -168Q111 -168 139 -140T182 -74L193 -32Q204 11 219 72T251 197T278 308T289 365Q289 372 288 376Z"></path>
<path stroke-width="1" id="E1-MJMATHBI-57" d="M111 624Q109 624 102 624T91 623Q61 623 61 640Q61 660 70 678Q78 686 98 686Q140 684 239 684Q277 684 309 684T360 685T383 686H385Q407 686 407 668Q404 634 391 626Q387 624 348 624Q307 624 307 622Q307 618 332 409Q359 198 359 195L570 532L564 576L558 622V624H522H504Q472 624 472 641Q475 678 488 684L493 686L529 685Q551 684 645 684Q716 684 753 685T795 686Q818 686 818 669Q815 632 802 626Q798 624 759 624Q718 624 718 622Q718 615 743 410Q770 199 770 196Q770 195 806 253T903 406Q1035 618 1035 619Q1025 624 968 624Q943 624 943 641Q943 648 946 659Q950 675 952 679T963 686L998 685Q1020 684 1093 684Q1113 684 1139 685T1173 686Q1207 686 1207 669Q1207 664 1204 652Q1199 631 1194 628T1164 624Q1113 622 1101 615Q1098 612 905 305Q715 -1 709 -7Q699 -17 673 -17Q645 -17 639 -8L581 441Q581 444 442 221Q331 44 314 18T288 -14Q279 -17 263 -17H254Q229 -17 227 -5Q225 2 186 311L147 620V624H111Z"></path>
<path stroke-width="1" id="E1-MJMATHI-56" d="M52 648Q52 670 65 683H76Q118 680 181 680Q299 680 320 683H330Q336 677 336 674T334 656Q329 641 325 637H304Q282 635 274 635Q245 630 242 620Q242 618 271 369T301 118L374 235Q447 352 520 471T595 594Q599 601 599 609Q599 633 555 637Q537 637 537 648Q537 649 539 661Q542 675 545 679T558 683Q560 683 570 683T604 682T668 681Q737 681 755 683H762Q769 676 769 672Q769 655 760 640Q757 637 743 637Q730 636 719 635T698 630T682 623T670 615T660 608T652 599T645 592L452 282Q272 -9 266 -16Q263 -18 259 -21L241 -22H234Q216 -22 216 -15Q213 -9 177 305Q139 623 138 626Q133 637 76 637H59Q52 642 52 648Z"></path>
</defs>
<g stroke="currentColor" fill="currentColor" stroke-width="0" transform="matrix(1 0 0 -1 0 0)">
 <use xlink:href="#E1-MJMATHBI-70" x="0" y="0"></use>
 <use transform="scale(0.707)" xlink:href="#E1-MJMATHI-6A" x="850" y="-213"></use>
<g transform="translate(993,0)">
 <use xlink:href="#E1-MJMATHBI-57" x="0" y="0"></use>
 <use transform="scale(0.707)" xlink:href="#E1-MJMATHI-56" x="1546" y="-213"></use>
</g>
</g>
</svg>